<?xml version="1.0" encoding="UTF-8"?>
<svg width="50px" height="50px" viewBox="0 0 50 50" version="1.1" xmlns="http://www.w3.org/2000/svg" xmlns:xlink="http://www.w3.org/1999/xlink">
    <!-- Generator: Sketch 59 (86127) - https://sketch.com -->
    <title>guanbi @2x</title>
    <desc>Created with Sketch.</desc>
    <g id="维修部位" stroke="none" stroke-width="1" fill="none" fill-rule="evenodd">
        <g id="选择维修部位-未选择" transform="translate(-196.000000, -1260.000000)" fill-rule="nonzero">
            <g id="guanbi-" transform="translate(196.000000, 1260.000000)">
                <rect id="矩形" fill="#000000" opacity="0" x="0" y="0" width="50" height="50"></rect>
                <path d="M0,0 L50,50 L50,4 C50,1.790861 48.209139,-4.05812251e-16 46,0 L0,0 L0,0 Z" id="形状结合" fill="currentColor"></path>
                <g id="关--闭" transform="translate(23.000000, 3.000000)">
                    <rect id="矩形" fill="#000000" opacity="0" x="0" y="0" width="24" height="24"></rect>
                    <path d="M13.2884903,12.2132034 L20.0831909,5.41850281 C20.4261703,5.07552338 20.4261703,4.5100708 20.0831909,4.16709137 L20.0461121,4.13001251 C19.7031326,3.78703308 19.1376801,3.78703308 18.7947006,4.13001251 L12,10.9339828 L5.20529938,4.13001251 C4.86231995,3.78703308 4.29686737,3.78703308 3.95388794,4.13001251 L3.91680908,4.16709137 C3.56455994,4.5100708 3.56455994,5.07552338 3.91680908,5.41850281 L10.7115097,12.2132034 L3.91680908,19.0079041 C3.57382965,19.3508835 3.57382965,19.9163361 3.91680908,20.2593155 L3.95388794,20.2963943 C4.29686737,20.6393738 4.86231995,20.6393738 5.20529938,20.2963943 L12,13.5016937 L18.7947006,20.2963943 C19.1376801,20.6393738 19.7031326,20.6393738 20.0461121,20.2963943 L20.0831909,20.2593155 C20.4261703,19.9163361 20.4261703,19.3508835 20.0831909,19.0079041 L13.2884903,12.2132034 Z" id="路径" fill="#FFFFFF"></path>
                </g>
            </g>
        </g>
    </g>
</svg>