<?xml version="1.0" encoding="UTF-8"?>
<svg width="83px" height="232px" viewBox="0 0 83 232" version="1.1" xmlns="http://www.w3.org/2000/svg" xmlns:xlink="http://www.w3.org/1999/xlink">
    <!-- Generator: Sketch 59 (86127) - https://sketch.com -->
    <title>编组 8@2x</title>
    <desc>Created with Sketch.</desc>
    <g id="维修部位" stroke="none" stroke-width="1" fill="none" fill-rule="evenodd">
        <g id="选择维修部位-未选择" transform="translate(-471.000000, -220.000000)">
            <g id="编组-8" transform="translate(473.000000, 221.000000)">
                <g id="d">
                    <path d="M45,0 L56,0 C63.3333333,4.66666667 67,8 67,10 C70,40 75,193 80,229 C80,229 50,223 38,223 C30,223 17.3333333,223.666667 0,225 L0,206 C28,183.333333 42,155.666667 42,123 C42,90.3333333 29.3333333,63.3333333 4,42 L45,0 Z" id="路径-3备份" stroke="#555358" stroke-width="2" fill="currentColor" transform="translate(40.000000, 114.500000) scale(-1, 1) translate(-40.000000, -114.500000) "></path>
                    <line x1="69" y1="0" x2="24" y2="48" id="路径-24备份" stroke-opacity="0.7" stroke="#FFF5EB" transform="translate(46.500000, 24.000000) scale(-1, 1) translate(-46.500000, -24.000000) "></line>
                    <rect id="矩形备份-14" stroke-opacity="0.7" stroke="#FFF5EB" transform="translate(42.500000, 206.000000) scale(-1, 1) translate(-42.500000, -206.000000) " x="38" y="197" width="9" height="18" rx="4.5"></rect>
                </g>
                <text id="D" font-family="PingFangSC-Medium, PingFang SC" font-size="40" font-weight="400" line-spacing="48" fill="#FFFFFF">
                    <tspan x="19" y="63">D</tspan>
                </text>
            </g>
        </g>
    </g>
</svg>