<?xml version="1.0" encoding="UTF-8"?>
<svg width="124px" height="208px" viewBox="0 0 124 208" version="1.1" xmlns="http://www.w3.org/2000/svg" xmlns:xlink="http://www.w3.org/1999/xlink">
    <!-- Generator: Sketch 59 (86127) - https://sketch.com -->
    <title>编组 14@2x</title>
    <desc>Created with Sketch.</desc>
    <g id="维修部位" stroke="none" stroke-width="1" fill="none" fill-rule="evenodd">
        <g id="选择维修部位-未选择" transform="translate(-172.000000, -654.000000)">
            <g id="编组-14" transform="translate(173.000000, 656.000000)">
                <g id="h">
                    <path d="M0,0 L122,5 L122,132 L74,200 L61,204 L39,197 C19,163.666667 6,145.333333 0,142 C0,132 0,84.6666667 0,0 Z" id="路径-12备份" stroke="#555358" stroke-width="2" fill="currentColor"></path>
                    <path d="M64,192 L109,128 L109,30 C109,25.3333333 107,23 103,23 C97,23 72,21 69,21 C66,21 64,23 64,27 C64,29.6666667 64,84.6666667 64,192 Z" id="路径-13备份" stroke-opacity="0.7" stroke="#FFF5EB"></path>
                    <line x1="64" y1="142" x2="97" y2="145" id="路径-14备份" stroke-opacity="0.7" stroke="#FFF5EB"></line>
                    <rect id="矩形备份-10" stroke-opacity="0.7" stroke="#FFF5EB" x="20" y="107" width="12" height="41" rx="6"></rect>
                    <circle id="椭圆形备份-4" stroke-opacity="0.7" stroke="#FFF5EB" cx="12" cy="140" r="5"></circle>
                </g>
                <text id="H" font-family="PingFangSC-Medium, PingFang SC" font-size="40" font-weight="400" line-spacing="48" fill="#FFFFFF">
                    <tspan x="15" y="63">H</tspan>
                </text>
            </g>
        </g>
    </g>
</svg>