<?xml version="1.0" encoding="UTF-8"?>
<svg width="124px" height="207px" viewBox="0 0 124 207" version="1.1" xmlns="http://www.w3.org/2000/svg" xmlns:xlink="http://www.w3.org/1999/xlink">
    <!-- Generator: Sketch 59 (86127) - https://sketch.com -->
    <title>编组 18@2x</title>
    <desc>Created with Sketch.</desc>
    <g id="维修部位" stroke="none" stroke-width="1" fill="none" fill-rule="evenodd">
        <g id="选择维修部位-未选择" transform="translate(-454.000000, -654.000000)">
            <g id="编组-18" transform="translate(455.000000, 656.000000)">
                <path d="M0,0 L122,5 L122,132 L74,200 L61,204 L39,197 C19,163.666667 6,145.333333 0,142 C0,132 0,84.6666667 0,0 Z" id="路径-12备份" stroke="#555358" stroke-width="2" fill="currentColor" transform="translate(61.000000, 102.000000) scale(-1, 1) translate(-61.000000, -102.000000) "></path>
                <path d="M13,192 L58,128 L58,30 C58,25.3333333 56,23 52,23 C46,23 21,21 18,21 C15,21 13,23 13,27 C13,29.6666667 13,84.6666667 13,192 Z" id="路径-13备份" stroke-opacity="0.7" stroke="#FFF5EB" transform="translate(35.500000, 106.500000) scale(-1, 1) translate(-35.500000, -106.500000) "></path>
                <line x1="25" y1="142" x2="58" y2="145" id="路径-14备份" stroke-opacity="0.7" stroke="#FFF5EB" transform="translate(41.500000, 143.500000) scale(-1, 1) translate(-41.500000, -143.500000) "></line>
                <rect id="矩形备份-10" stroke-opacity="0.7" stroke="#FFF5EB" transform="translate(96.000000, 127.500000) scale(-1, 1) translate(-96.000000, -127.500000) " x="90" y="107" width="12" height="41" rx="6"></rect>
                <circle id="椭圆形备份-4" stroke-opacity="0.7" stroke="#FFF5EB" transform="translate(110.000000, 140.000000) scale(-1, 1) translate(-110.000000, -140.000000) " cx="110" cy="140" r="5"></circle>
                <text id="I" font-family="PingFangSC-Medium, PingFang SC" font-size="40" font-weight="400" line-spacing="48" fill="#FFFFFF">
                    <tspan x="86" y="63">I</tspan>
                </text>
            </g>
        </g>
    </g>
</svg>